<?xml version="1.0" encoding="utf-8"?>
<!-- Generator: Adobe Illustrator 18.0.0, SVG Export Plug-In . SVG Version: 6.00 Build 0)  -->
<!DOCTYPE svg PUBLIC "-//W3C//DTD SVG 1.1//EN" "http://www.w3.org/Graphics/SVG/1.1/DTD/svg11.dtd">
<svg version="1.1" id="Layer_1" xmlns="http://www.w3.org/2000/svg" xmlns:xlink="http://www.w3.org/1999/xlink" x="0px" y="0px"
	 viewBox="-1575 -894.7 1023.9 1025.5" enable-background="new -1575 -894.7 1023.9 1025.5" xml:space="preserve">
<path fill="#DCFFE3" d="M-1488.6-894.7c0,0-86.8,162-17.4,303.8c69.4,141.8,179.4,228.6,240.1,546.8
	c60.8,318.3,402.2,112.8,462.9,72.3s231.7-33.6,251.7,7.1v-930H-1488.6z"/>
<g enable-background="new    ">
	<path fill="#FFFFFF" enable-background="new    " d="M-673.3-687.1l-12,7.7l7.3-13.3c-2.1-1.7-4.7-2.6-7.3-2.6h-0.1
		c-0.8,0-1.7,0-2.5-0.1l-4,2.6l1.7-3.1c-2.9-1-5.3-2.9-7.2-5.5l-7.3,4.7l4.6-8.3c-4.3-5.1-10-8.2-16.3-8.2
		c-7.5,0-14.3,4.6-18.7,11.6c-2.6,4.3-7.4,6.9-12.4,6.6h-0.4c-8.3,0-15.1,9.5-15.1,21.2c0,11.7,6.8,21.2,15.1,21.2
		c1.8,0,3.6-0.5,5.3-1.3c5.7-2.9,12.5-3,18.3-0.4c4.9,2.2,10.7,2.2,15.6,0c5.9-2.5,12.5-2.3,18.2,0.4c1.6,0.8,3.4,1.3,5.2,1.3
		c8.3,0,15.1-9.5,15.1-21.2C-670.1-678.6-671.2-683.1-673.3-687.1z"/>
	<path opacity="2.000000e-002" enable-background="new    " d="M-695.9-656c-4.4-0.8-8.8-0.4-13,1.4c-4.9,2.2-10.7,2.2-15.6,0
		c-5.9-2.6-12.6-2.5-18.3,0.4c-1.7,0.9-3.4,1.3-5.3,1.3c-7.4,0-13.7-7.5-14.8-17.3c1.4-1,2.7-2.5,3.8-4c4.3-7,11.1-11.6,18.7-11.6
		c7.7,0,14.2,4.4,18.6,11.4c2.6,4.3,7.3,6.9,12.4,6.8h0.1C-703.5-667.7-698.4-663-695.9-656z"/>
</g>
<path fill="#F2F2F2" d="M-994.2-504.4l-6,3.8l3.6-6.6c-1-0.8-2.3-1.3-3.6-1.3l0,0c-0.4,0-0.8,0-1.3-0.1l-2.1,1.3l0.9-1.6
	c-1.4-0.5-2.7-1.4-3.5-2.7l-3.6,2.3l2.3-4.2c-2-2.6-4.9-4-8.2-4.2c-3.8,0-7.2,2.2-9.2,5.7c-1.3,2.1-3.6,3.4-6.2,3.4h-0.3
	c-4.2,0-7.5,4.7-7.5,10.5c0,5.9,3.4,10.5,7.5,10.5c0.9,0,1.8-0.3,2.6-0.7c2.9-1.4,6.2-1.4,9.1-0.1c1.2,0.5,2.5,0.8,3.9,0.8
	c1.3,0,2.6-0.3,3.9-0.8c2.9-1.3,6.2-1.2,9.1,0.1c0.8,0.4,1.7,0.7,2.6,0.7c4.2,0,7.5-4.7,7.5-10.5
	C-992.6-500.1-993.1-502.4-994.2-504.4z"/>
<path opacity="3.000000e-002" enable-background="new    " d="M-1005.4-488.9c-2.2-0.4-4.4-0.1-6.5,0.7c-1.2,0.5-2.5,0.8-3.9,0.8
	c-1.3,0-2.7-0.3-3.9-0.8c-2.9-1.3-6.2-1.2-9.1,0.1c-0.8,0.4-1.7,0.7-2.6,0.7c-3.6,0-6.8-3.8-7.4-8.7c0.8-0.5,1.4-1.2,1.8-2
	c2.2-3.5,5.6-5.7,9.2-5.7c3.8,0,7.2,2.2,9.2,5.7c1.3,2.1,3.6,3.4,6.2,3.4h0.1C-1009.2-494.8-1006.7-492.4-1005.4-488.9z"/>
<g>
	<path fill="#FFFFFF" enable-background="new    " d="M-1048.8-622.2l9.6,6.1l-5.9-10.7c1.7-1.3,3.6-2.1,5.9-2.1h0.1
		c0.7,0,1.3,0,2-0.1l3.3,2.1l-1.4-2.6c2.3-0.8,4.3-2.3,5.7-4.3l5.9,3.6l-3.6-6.8c3.4-4.2,8.1-6.6,13.1-6.6c6.1,0,11.4,3.6,15,9.2
		c2.1,3.4,5.9,5.5,9.9,5.3h0.3c6.8,0,12.1,7.5,12.1,16.9s-5.5,16.9-12.1,16.9c-1.4,0-2.9-0.4-4.2-1c-4.7-2.2-10-2.3-14.7-0.3
		c-2,0.9-4.2,1.3-6.2,1.3c-2.1,0-4.3-0.4-6.2-1.3c-4.7-2.1-10-2-14.6,0.3c-1.3,0.7-2.7,1-4.2,1c-6.8,0-12.1-7.5-12.1-16.9
		C-1051.4-615.5-1050.5-619.1-1048.8-622.2z"/>
	<path opacity="2.000000e-002" enable-background="new    " d="M-1030.7-597.4c3.5-0.7,7.2-0.3,10.4,1.2c4,1.8,8.5,1.8,12.5,0
		c4.7-2.1,10-2,14.7,0.3c1.3,0.7,2.7,1,4.2,1c6,0,10.9-6,12-13.9c-1.2-0.9-2.2-2-3-3.3c-3.5-5.6-8.8-9.2-15-9.2s-11.4,3.5-15,9.1
		c-2.1,3.4-5.9,5.5-9.9,5.5h-0.1C-1024.6-606.7-1028.8-603-1030.7-597.4z"/>
</g>
<path fill="#F2F2F2" d="M-1125-450c-0.4-0.7-2.3,0-4.4,1.3c-0.4,0.3-0.7,0.5-1,0.8c-1.4-0.8-3-1.2-4.6-1.4h0.1
	c2.1-1.3,3.9-2.9,5.6-4.7h-4.3l6.4-2.5c0.8-1.2,1-2.2,0.7-2.9c-1.2-1.7-6.6,0-12.4,3.8c-2.6,1.7-4.9,3.6-6.9,6
	c-4.7,0.5-7.9,2-7.9,3.5c0,1,1.6,2.1,4,2.7l-0.1,0.1c-5.7,3.8-9.4,8.2-8.2,9.9c1,1.6,5.5,0.4,10.4-2.5l-3.3-1.6l5.2,0.4l0.1-0.1
	c0.5-0.4,1-0.8,1.6-1.2l-3.9-1.8l5.7,0.4c1-0.9,2.1-1.8,3-2.9c5.3-0.3,9.4-1.6,10.1-3.3c0.4-0.3,0.9-0.4,1.3-0.7
	c0.8-0.5,1.4-1,2-1.7h-1.7l2.2-0.9C-1124.9-449.4-1124.9-449.8-1125-450z"/>
<path opacity="4.000000e-002" enable-background="new    " d="M-675.4-445l-47.5,12.7l45.8-18.9c-1.2-3.5-2.8-6.7-4.8-9.7
	c2.2-1.9,4.2-4,6.1-6.2c21.2-24.9,18-57.2-7.3-72.2c-25.3-14.9-63-6.9-84.2,18l37.7,29.1l-42.5-22.5c-8.7,13.4-11.3,28.5-7.2,41.8
	l34.9,0.3l-33.2,4.3c1,2.1,2.1,4.1,3.3,6.1c-20.6,18.9-25.9,45.8-12.8,65.2c-7.1,6.4-12.6,14-16,22.2c-12,28.4,3.4,56.3,34.2,62.5
	c-1.2,2-2,4-2.5,6.1c-0.6,3.1-0.2,6,0.9,8.8c-4.5,5.3-5.8,12.1-3.5,17.6c-4.5,5.3-5.8,12.1-3.5,17.6c-4.5,5.3-5.8,12.1-3.5,17.6
	c-0.2,0.2-0.3,0.3-0.4,0.5h19.8c0-0.1,0-0.1-0.1-0.2c4.5-5.3,5.8-12.1,3.5-17.6c4.5-5.3,5.8-12.1,3.5-17.6
	c4.5-5.3,5.8-12.1,3.5-17.6c2.3-2.6,3.7-5.6,4.3-8.7c0.6-2.1,0.6-4.2,0.1-6.2c9.6-1.3,19.1-4.7,27.6-9.9
	c29.1-17.5,40.1-50.6,24.6-73.8C-679.7-409.5-672.4-428.1-675.4-445z"/>
<g>
	<g>
		<g>
			<path fill="#002A4C" d="M-1160.5-499.2l10,4.7l-3,24.6l-31.9,16.9l-5.7-5.5c-3.4-6.1,0.5-19.1,4.4-23.5L-1160.5-499.2z"/>
		</g>
		<g>
			<path fill="#FF9864" d="M-1151.5-492.8l-2.6,20.4l-18.2,6.9c-9-12.6-32.5-40.6-49-43.2c-3.8,0.5-6.9,1.3-10.7,2.6
				c-13.5,5.1-2.2-13.7,2.9-15.1c14.3-0.1,26.1,3,39.4,9c9.9,4.3,26.1,11.4,33.8,15.4L-1151.5-492.8z"/>
		</g>
		<g opacity="0.1">
			<path d="M-1164.5-472.8l-2.3,5.2l-5.5,2.1c-9-12.6-32.5-40.6-49-43.2c-3.8,0.5-6.9,1.3-10.7,2.6c-7.8,2.9-7.5-2.1-4.8-7l0,0
				c-1.6,3.8,1.3,3.8,7.9,1.7s12.9-5.6,34.6,12.9C-1172.6-479.8-1164.7-472.7-1164.5-472.8z"/>
		</g>
		<g>
			<path fill="#FF9864" d="M-1014-220.4c1.7,7.2,4.9,22.2,11.4,26.8c4.4,3,11.8,5.6,15,10.1c2.6,3.8-4.7,3.5-14.4,3.5
				c-7.8,0-19.6-0.7-19.6-0.7c-2.9-3-3.6-10.5-5.2-13.9c-4.2-8.3-24.7-48.7-24.7-48.7L-1014-220.4z"/>
		</g>
		<g>
			<path fill="#19191E" d="M-1190.2-456.9c40.9,32.5,72.1,68.8,103.3,92.9c-3.5,33.6,4.8,91.2-2.7,141.5c4.7,6.2,54.6-2.2,73.9,2.3
				h1.6c-4.7-19.1-3.6-39.2-5.5-58.8c-2.7-30.7-14.2-60.4-11.2-91.5l-15.7-66.1l-2.3-4.8c-19.1-21.2-82.2-42.4-108.6-56.7l1.4,1.2
				c11.3,12-29.9,47.7-35,38.5L-1190.2-456.9"/>
		</g>
		<g>
			<path fill="none" d="M-1013.9-220.5h-1.6c-3-0.7-6.9-1.2-11.1-1.3l0,0c-28.9-8.6-39.4-138.9-39.4-138.9l-19.8,3l-2,3.5
				c0.1-3.6,0.3-7.2,0.7-10.4c-31.2-23.8-62.4-60-103.3-92.6l-0.9-1.4c5.2,9.2,46.3-26.7,35-38.5l-1.4-1.2
				c26.4,14.3,89.5,35.5,108.6,56.7l2.3,4.8l15.7,66.1c-3,31.1,8.3,60.8,11.2,91.5C-1017.7-259.7-1018.7-239.5-1013.9-220.5z"/>
			<path opacity="0.1" enable-background="new    " d="M-1026.8-221.8L-1026.8-221.8c-22.8-0.9-58.9,4.2-63-1.2
				c6.9-45.5,0.8-96.9,2.1-131.1l2-3.5l19.8-3C-1066.1-360.6-1055.5-230.2-1026.8-221.8z"/>
		</g>
		<path opacity="0.1" enable-background="new    " d="M-1040.7-221.7l6.1,12c-5.1-9.9,18.2-11.1,20.6-10.8
			C-1026.1-222.9-1040.7-221.7-1040.7-221.7z"/>
		<path fill="#002A4C" d="M-1087.8-343.5l55.2,22.8c-19.4,4.9-55.2-15.9-55-10L-1087.8-343.5z"/>
		<g>
			<path fill="#D30051" d="M-1023.8-370.4l-1.6,23.8l16.5,42c1.2-0.1,6.9-2.7,6.6-4.2c0.9-0.8-8.5-20.6-9.2-22.9
				c-4.8-14.4-7.3-30.3-7.3-45.5l-0.8,0.1L-1023.8-370.4z"/>
		</g>
		<g>
			<path fill="#F9125F" d="M-1019.5-376.9l-12.5,2.6c0,0-4.7,24.1-4.4,24.7c0.1,0.7,9.4,29.3,9.4,29.3c2.3,12.6,8.6,26.8,12.5,37.5
				c2,2.6,14.3,1.6,14.3-1.3c-2.6-5.7-5.1-11.4-7.3-17.2c-5.5-15-9.2-29.8-10.8-45.4c-0.9-9.5-2.2-20.8-0.3-30.4"/>
		</g>
		<g>
			<path fill="none" d="M-1014-220.4h-1.6c-19.3-4.4-69.3,3.8-73.9-2.3c4.2-28.4,3.4-58.9,2.6-86.3l44,12.2l14.4-34
				c3,17,7.3,34.1,9,51.5C-1017.7-259.7-1018.7-239.5-1014-220.4z"/>
			<path fill="none" d="M-1035.2-389.5l-52.4,24.1c-31.1-23.5-61.9-59.5-102.5-91.8l-0.9-1.4c5.2,9.2,46.3-26.7,35-38.5l-1.4-1.2
				c26.4,14.3,89.5,35.5,108.6,56.7l2.3,4.8L-1035.2-389.5L-1035.2-389.5z"/>
			<path d="M-1042.8-296.8l-44.1-12.2c-0.7-21.2-1.3-40.6,0.1-55.3c-0.3-0.1-0.7-0.5-0.9-0.7l52.6-24.3l0,0l4.4,18.9
				c-4.3,12.7-2.9,36.8-0.7,50.1L-1042.8-296.8z"/>
		</g>
		<g>
			<path fill="none" d="M-1014-220.8h-1.6c-19.3-4.4-69.3,3.8-73.9-2.3c7.5-50.3-0.8-107.9,2.7-141.5c-2.3-1.7-4.8-3.6-7.2-5.6
				l27.5-17.7c-19-5.2-102-72.7-99.9-82.9l0,0c9.1-9.2,16.1-20.6,10.5-26.4l-1.4-1.2c26.4,14.3,89.5,35.5,108.6,56.7l2.3,4.8
				l15.7,66.1c-3,31.1,8.3,60.8,11.2,91.5C-1017.7-259.7-1018.7-239.5-1014-220.8z"/>
			<path opacity="0.1" enable-background="new    " d="M-1066.5-387.7l-27.5,17.7c-29-23.5-58.5-56.9-96.3-87l-0.9-1.4
				c2.7,4.8,14.8-2.3,24.6-12.1l0,0C-1168.8-460.4-1085.6-393-1066.5-387.7z"/>
		</g>
		<g>
			<path fill="#04053E" d="M-931.9-475.1c14.1,42.3,10.1,92.8-21.5,131.9c-6.5,7.9-13.5,9.8-18.5,7.3l14.3-16.3l8.6-20.8l-8.6-7.3
				l-3.1-3.5c0-1.4-0.1-2.6,0.1-5.5l-0.8-0.1c-22.8,9.4-50.2,12-55.4,11.8h-3.4c-12.2-0.5-23.9-61.8-18.9-73.1l0,0
				c10.1-8.3,10-9.1,19.4-18.5l0,0c-19.4,7-51.5,15-73.5,15c-2-13.4-7.7-36.2-9-52.7h1.6c15,2,15.7,3.5,48.1-0.5
				C-1011.5-512.3-942.9-490.2-931.9-475.1"/>
		</g>
		<g>
			<path fill="#FF9864" d="M-1111.7-493c4.4,0,6.1-0.9,11.2-0.9l-1.6-12.9c-11.4-0.8-18.6-19.3-27.2-4.4c-2,3.8-0.8,5.6,1.3,5.5
				C-1126.3-495.7-1123.7-492.2-1111.7-493z"/>
		</g>
		<g>
			<path fill="#002A4C" d="M-975-362.2c-6.5,13.5-3.6,23.8,2.7,26.9l1.2,0.1c9.2,2.2,12.6-8.7,15.4-15.4c2.7-6.5,9.5-21.5,4.9-28.1
				c-3.5-4.9-13.7-7.3-16.9-1.3L-975-362.2z"/>
		</g>
		<g>
			<path fill="#002A4C" d="M-1030-458.6c9.2-8.1,49-27.7,49-27.7s-6.2,3.8-28.6,13.3c-2.7,1.3-6.2,2.7-10.1,4.2L-1030-458.6z"/>
		</g>
		<g>
			<path fill="#002A4C" d="M-960.9-383.5l0.1-5.5c4.4-1.7,7.9-4.2,12-6.5C-952.1-389.9-960.9-383.4-960.9-383.5z"/>
		</g>
		<g>
			<path fill="#002A4C" d="M-1123.4-507c1.7-2,4-1.3,5.6,0.5c1.3,1.4,3.4,5.1,3.6,7.2c0.3,0.9,0.3,2.6-0.9,2.2
				c-0.7-0.1-2-2.7-2.3-3.1c-1.6-2.1-0.7-4.7-2.9-6.1C-1121.5-507.1-1122.3-506.7-1123.4-507"/>
		</g>
		<g>
			<path fill="#EA8053" d="M-959.4-383.1c3.4,0.5,6.6,2.2,8.5,4.7c2.1,2.7,2,7,0.9,11.4c0,0-3.4,2.2-6.4,4.9
				c-3,2.7-9.2-7.7-9.9-10.8C-966.9-376.1-960.4-380.2-959.4-383.1z"/>
		</g>
		<path fill="#002A4C" d="M-966.8-373.1l2,4.9l6.4,1.7l3-6.2c0.3-6.1-7.8-6.1-7.8-6.1l-0.7,1.2L-966.8-373.1z"/>
		<g>
			<path fill="#FF9864" d="M-955.5-366c0.9-2.3,3.8-5.7,1.3-7.8c-2.7-2.1-3,0.3-4.3,1.7l-2.7,6.9c1.3-3,5.2-9.8,1.6-12
				c-3-2-3.8,0.8-5.2,2.9c0,0-1.2,2.3-0.3,0.9c0.8-1.6,2.3-4,0.9-5.6c-1.3-1.4-3.6-1.3-4.9-0.1c-0.8,0.7-2.7,3.4-3,4.4l1.6-3.1
				c2.9-5.1-2.2-4.7-3.6-3c-15,16.3,11.6,31.2,20.4,15.4c1.7-4.3,7.2-9.2-6.4-10.1"/>
		</g>
		<path fill="#04053E" d="M-1042.1-404.4c0,0,81.3-18.9,81.6-19c0.1-0.1,9.2-3.6,9.2-3.6s10.8-33.2,10.5-33.2
			c-0.3,0-66.1,13.5-66.1,13.5l-34.6,19.1l-4.7,12.1L-1042.1-404.4z"/>
		<g>
			<path fill="#08080A" d="M-1005.2-388l-25.2,17.7c-6.6,17.2-1.3,32,0.3,49.8c-42.4-2.6-68.8-29.8-88.7-56.9
				c12.6-6.4,53.7-33,67.3-37.6c13.4-4.7,30.3-5.7,44.4-6.5c11.8-0.7,23.4-1.6,35.3-2.6c7-0.7,14.2-1.2,20.8-3L-1005.2-388z"/>
		</g>
		<path fill="#FF9864" d="M-927.1-487.6l3.5,2.2c0,0,10.5,5.5,7,6.4c-9.4,2.7-8.3,9.5-9.2,15.6c-1.4,12,0.1,20.7-11.1,29.3
			c-4.3,3.1-9.1,6.2-14.3,7.2c2.1-11.3,2.1-23.2,4.2-34.6c1.7-9.8,6.9-17,14.4-22.6C-930.9-485.4-928.9-486.6-927.1-487.6z"/>
		<g>
			<path fill="#FF9864" d="M-909.8-491.5c-0.1,9-4.3,9.8-9.4,12c-6.1,2.7-21.2-3-18-9.4c2.1-4.2,7-7.9,12.7-10.7
				C-919.4-502.2-909.7-496.9-909.8-491.5z"/>
		</g>
		<g>
			<path fill="#002A4C" d="M-924-499.7c1.6-2,3.6-2.6,6.1-1.7c5.6,2,10,7.5,8.5,13.3c-1.6,6.1-5.7,9.2-11.6,11.2
				c0.7-0.8,0.9-1.7,0.8-2.7c-0.1-0.9-0.8-1.7-0.3-2.7c1.7,1.4,4.2-0.3,4.2-2.3c0.1-3.1-2.7-1.7-4.3-0.9c0.5-1.7,2.2-3,3-4.8
				c0.9-2.6,0-6.6-2.3-8.1c-0.8-0.7-2.9-1.4-4-0.7"/>
		</g>
		<g opacity="0.1">
			<path d="M-954.4-364.5c-7.8,12.1-26.9,3.5-23.9-9.1c-0.9,4.2,7.3,9.8,12.2,10.4C-961.3-362.6-956-362.7-954.4-364.5z"/>
		</g>
		<g>
			<path fill="#002A4C" d="M-961.6-379.9c1.2-1.2,2-2.2,2.2-3.1c3.4,0.5,6.6,2.2,8.5,4.7c2.1,2.7,2,7,0.9,11.4c0,0-0.5,0.3-1.2,0.8
				c0-0.1,0,0,0,0C-949.6-376.9-960.2-381.7-961.6-379.9z"/>
		</g>
		<path fill="#BC0852" d="M-1028.6-370c0,0-4.7-1.7-7.8-4.8c-14.2-16.8-16.8-49-12-66.5L-1028.6-370z"/>
		<g>
			<path fill="#F9125F" d="M-1037-451.8c-3.4,1.4-11.3,9.5-11.4,11.2c-2.1,15.1-0.3,30.6,9.2,57.5c0.9,3,7.7,14.7,10.8,13.3l9.8-7.3
				C-1029-375.3-1043.6-447.5-1037-451.8z"/>
		</g>
		<path opacity="0.1" enable-background="new    " d="M-920.9-477.1c-0.8,1.4-15,4.7-17.8,1.3c-2,2.3-5.6,8.3-6.9,19.1
			c-2,15-5.6,29.8-5.6,29.8s2.7-22.1,3.6-31.7c0.9-9.2,5.5-16.5,8.7-20c0.1-0.1,0.3-0.3,0.5-0.5l0,0l0,0c0.9-0.8,2.2-2.1,3.5-3.1
			c3.8,2.9,8.7,0.8,12.1,0.9C-919.3-481.2-920.2-478.9-920.9-477.1z"/>
		<path opacity="0.1" enable-background="new    " d="M-1093.3-454.2c8.7,1.2,41.9-4.3,64.9-12c23-7.7,47.6-20.3,47.6-20.3
			c-10.8-28.9-117.1,6.9-118.4,0.5L-1093.3-454.2z"/>
	</g>
	<g>
		<g>
			<path fill="#FF9864" d="M-1366.3-598.1c-1.7-1.4-3.4-3-4.7-4.8c-0.9-1.4-2-2.7-2.7-4.2c-1.2-2-1.7-3.4-1.7-3.4
				s-12.1,10.1-9.5,10.4c1.2,0.1,2,2,2.6,4c0.5,2.1,0.9,4.3,1.3,6.5C-1381.2-589.5-1361.6-594.7-1366.3-598.1z"/>
			<path fill="#FF9864" d="M-1367.5-606.9c4.7,4.9-13.9,9.8-20.7,9.4c-6.8-0.4-10.1-5.6-9.8-12.2c0.3-6.6,2.9-9.9,9.5-9.4
				C-1381.7-618.8-1371.9-611.5-1367.5-606.9z"/>
			<path fill="#04053E" d="M-1381.7-599.5c-0.3,5.1-6.1,3.5-6.1,3.5c-22.9-1.3-15.1-14.4-10.7-24.3s8.5-3.4,9.5,0.7
				c1.2,3.8,7.3,6.9,7.3,6.9c-6.5,2.2-3.5,5.6-3.5,5.6C-1382.6-605.4-1381.4-602.5-1381.7-599.5z"/>
		</g>
		<path fill="#FF9864" d="M-1455.4-486.1c0,0-26.9,39.4-43.3,33.8s36.7-39,36.7-39L-1455.4-486.1z"/>
		<path fill="#6C63FF" d="M-1366.3-539.3c-8.5,4.8-87.8,63.9-91.6,64.9c-3.8,0.9-11.8-14.8-11.8-14.8s38.5-31.2,46.1-45.4
			c7.4-14.3,32.8-32.8,32.8-32.8C-1370.9-573.7-1358.1-544.1-1366.3-539.3z"/>
		<path fill="#E25274" d="M-1366.2-539.1c-8.7,4-88.5,63-102.3,82.5c-2.3,3.1-24.3-18.9-24.3-18.9s61.7-45.1,69.2-59.3
			c7.3-14.1,32.7-32.5,32.7-32.5C-1370.9-573.7-1357.6-543.4-1366.2-539.1z"/>
		<path fill="#FF9864" d="M-1460.9-527.2c0,0-35.6,31.7-50.2,22.5c-14.4-9.4,44.9-29.1,44.9-29.1L-1460.9-527.2z"/>
		<g>
			<path fill="#55536E" d="M-1414.7-259c0,0-1.6,11.8-3,17c-1.4,5.1,4.4,14.1,2.2,16.3c-2.2,2.2-14.8-7.5-14.8-12
				c0-4.4-6.6-12.6-8.1-21.5c-1.6-9,12.6-3,12.6-3L-1414.7-259z"/>
			<path fill="#F28555" d="M-1414.7-259c0,0-1.6,11.8-3,17c-1.4,5.1,4.4,14.1,2.2,16.3c-2.2,2.2-14.8-7.5-14.8-12
				c0-4.4-6.6-12.6-8.1-21.5c-1.6-9,12.6-3,12.6-3L-1414.7-259z"/>
		</g>
		<path fill="#FF9864" d="M-1401.6-248.8c0,0-1.6,11.8-3,17c-1.4,5.1,4.4,14.1,2.2,16.3c-2.2,2.2-14.8-7.5-14.8-12
			c0-4.4-6.5-12.6-8.1-21.5c-1.6-8.8,12.6-3,12.6-3L-1401.6-248.8z"/>
		<path fill="#3F3D56" d="M-1417.2-245.8c0,0-17-14.7-19.8-21.2c-2.6-6.5,75.3-80.7,75.3-80.7
			C-1357.7-323.7-1417.2-245.8-1417.2-245.8z"/>
		<path fill="#020321" d="M-1417.2-245.8c0,0-17-14.7-19.8-21.2c-2.6-6.5,75.3-80.7,75.3-80.7
			C-1357.7-323.7-1417.2-245.8-1417.2-245.8z"/>
		<path fill="#04053E" d="M-1296.9-481.1c10.5,6.6,9.2,39.7,5.2,60.9c-4,21.2-43.7,99.1-43.7,99.1s-43.7,64.7-58.2,80.7
			c-14.4,15.9-33-14.4-33-14.4s43.7-68.7,54.1-80.7s19.9-49,14.7-87.4s21.9-58,21.9-58S-1307.4-487.9-1296.9-481.1z"/>
		<path fill="#FF6584" d="M-1345.8-585.3c51.5,31.7,55.3,115.8,55.3,115.8s-50.1-2.1-51.1-6.1c-10-33.3-80.3-60.1-62.3-103.3
			c7.2-17.4,46.2-21.1,46.2-21.1C-1357.7-590.8-1345.8-585.5-1345.8-585.3z"/>
		<path fill="#FF6584" d="M-1361.4-557.7c-28.2-0.7-119,57.2-122.2,54.8c-0.1-0.1-16.3-22.6-16.3-22.6s62.6-21.9,81.4-41.4
			c11.1-11.4,23.2-21.2,23.2-21.2C-1374.1-589.5-1352-557.5-1361.4-557.7z"/>
	</g>
</g>
<path fill="#002A4C" d="M-872.6-492.2c-3.1,4-8.8,4.7-13.9,4c-5.9-0.9-11.2-4.6-15.5-8.6c-5.1-4.7-13-7.8-19.6-4.7
	c2.2,0.9,4.3,3.1,6.5,4.2c1.6,0.8,3.4,1.7,3.8,3.4c0.3,1.2-0.3,2.3-0.8,3.4c-2.3,4.9-5.5,9.6-9.2,13.7c0,0,2.9,1.8,4.7,3.5
	c0.1,0.1,0.1,0.1,0.3,0.3l0,0l0,0c0.5,0.5,1.2,0.9,1.8,1.2c2,0.9,4.2,0.9,6.4,0.9c4.3-0.1,11.2-1.3,15.4-2.6
	c-8.2,0.8-8.5-2.9-9.2-5.7c5.1,0.5,10.3-0.4,14.8-2.6c-3.9,0.7-8.1-0.5-10.8-3.3C-889.3-482.7-878.5-483.7-872.6-492.2z"/>
<line opacity="7.000000e-002" fill="none" stroke="#000000" stroke-width="3" stroke-miterlimit="10" enable-background="new    " x1="-1364.7" y1="-629.7" x2="-1348.9" y2="-652.5"/>
<line opacity="7.000000e-002" fill="none" stroke="#000000" stroke-width="3" stroke-miterlimit="10" enable-background="new    " x1="-1355" y1="-622.5" x2="-1332.6" y2="-637.5"/>
<line opacity="0.1" fill="none" stroke="#000000" stroke-width="3" stroke-linecap="round" stroke-miterlimit="10" enable-background="new    " x1="-1258.5" y1="-529.6" x2="-1283.1" y2="-542.4"/>
<line opacity="0.1" fill="none" stroke="#000000" stroke-width="3" stroke-linecap="round" stroke-miterlimit="10" enable-background="new    " x1="-1252.6" y1="-540" x2="-1270.2" y2="-560.3"/>
<line opacity="0.1" fill="none" stroke="#000000" stroke-width="3" stroke-linecap="round" stroke-miterlimit="10" enable-background="new    " x1="-1237" y1="-479.2" x2="-1243.6" y2="-452.2"/>
<line opacity="0.1" fill="none" stroke="#000000" stroke-width="3" stroke-linecap="round" stroke-miterlimit="10" enable-background="new    " x1="-1248.6" y1="-482.4" x2="-1264.2" y2="-460.6"/>
<g opacity="0.1">
	<polygon points="-652,-518.3 -577.7,-504 -652.7,-514.4 	"/>
</g>
<g opacity="0.1">
	<polygon points="-659.9,-450.1 -622.2,-441.8 -660.6,-446.1 	"/>
</g>
<g opacity="0.1">
	<polygon points="-698,-310.1 -660.3,-301.8 -698.6,-306.2 	"/>
</g>
<g opacity="0.1">
	<polygon points="-664.6,-368.3 -617.6,-358.4 -665.2,-364.3 	"/>
</g>
<ellipse opacity="4.000000e-002" enable-background="new    " cx="-998.5" cy="-179.9" rx="160.5" ry="20.2"/>
</svg>
