<?xml version="1.0" encoding="utf-8"?>
<!-- Generator: Adobe Illustrator 18.0.0, SVG Export Plug-In . SVG Version: 6.00 Build 0)  -->
<!DOCTYPE svg PUBLIC "-//W3C//DTD SVG 1.1//EN" "http://www.w3.org/Graphics/SVG/1.1/DTD/svg11.dtd">
<svg version="1.1" id="Layer_1" xmlns="http://www.w3.org/2000/svg" xmlns:xlink="http://www.w3.org/1999/xlink" x="0px" y="0px"
	 viewBox="0 0 92.8 32.4" enable-background="new 0 0 92.8 32.4" xml:space="preserve">
<g>
	<g>
		<path fill="#FFFFFF" d="M34.5,5.6H37v17.5h8.4v2.1H34.5V5.6z"/>
		<path fill="#FFFFFF" d="M60.5,18.1c0,5.2-3.6,7.5-7,7.5c-3.8,0-6.8-2.8-6.8-7.3c0-4.7,3.1-7.5,7-7.5
			C57.8,10.8,60.5,13.8,60.5,18.1z M49.3,18.2c0,3.1,1.8,5.4,4.3,5.4c2.4,0,4.3-2.3,4.3-5.5c0-2.4-1.2-5.4-4.2-5.4
			C50.7,12.8,49.3,15.6,49.3,18.2z"/>
		<path fill="#FFFFFF" d="M75.9,11.2c-0.1,1-0.1,2.2-0.1,3.9v8.2c0,3.2-0.6,5.2-2,6.4c-1.4,1.3-3.4,1.7-5.1,1.7
			c-1.7,0-3.6-0.4-4.7-1.2l0.6-2c0.9,0.6,2.4,1.1,4.1,1.1c2.6,0,4.5-1.4,4.5-4.9v-1.6h-0.1c-0.8,1.3-2.3,2.4-4.5,2.4
			c-3.5,0-6-3-6-6.9c0-4.8,3.1-7.5,6.4-7.5c2.4,0,3.8,1.3,4.4,2.4h0.1l0.1-2.1H75.9z M73.3,16.7c0-0.4,0-0.8-0.1-1.2
			c-0.5-1.5-1.7-2.7-3.6-2.7c-2.4,0-4.2,2.1-4.2,5.3c0,2.8,1.4,5.1,4.2,5.1c1.6,0,3-1,3.6-2.6c0.1-0.4,0.2-0.9,0.2-1.4V16.7z"/>
		<path fill="#FFFFFF" d="M92.8,18.1c0,5.2-3.6,7.5-7,7.5c-3.8,0-6.8-2.8-6.8-7.3c0-4.7,3.1-7.5,7-7.5
			C90.1,10.8,92.8,13.8,92.8,18.1z M81.6,18.2c0,3.1,1.8,5.4,4.3,5.4c2.4,0,4.3-2.3,4.3-5.5c0-2.4-1.2-5.4-4.2-5.4
			C83,12.8,81.6,15.6,81.6,18.2z"/>
	</g>
	<path fill="#F36B23" d="M21.2,20.5c0,5.1-4.1,9.2-9.2,9.2s-9.2-4.1-9.2-9.2c0-0.3,0-0.6,0-0.9c-0.8-1-1.5-2.1-2-3.4
		C0.3,17.5,0,19,0,20.5c0,6.6,5.4,11.9,11.9,11.9s11.9-5.4,11.9-11.9c0-1.5-0.3-2.9-0.8-4.3c-0.5,1.2-1.1,2.4-2,3.4
		C21.1,19.9,21.2,20.2,21.2,20.5z"/>
	<path fill="#FFFFFF" d="M11.9,0C5.4,0,0,5.4,0,11.9c0,1.5,0.3,2.9,0.8,4.3c0.5,1.2,1.1,2.4,2,3.4c2.2,2.6,5.5,4.3,9.2,4.3
		s7-1.7,9.2-4.3c0.8-1,1.5-2.1,2-3.4c0.5-1.3,0.8-2.8,0.8-4.3C23.9,5.4,18.5,0,11.9,0z"/>
</g>
</svg>
