<?xml version="1.0" encoding="utf-8"?>
<!-- Generator: Adobe Illustrator 18.0.0, SVG Export Plug-In . SVG Version: 6.00 Build 0)  -->
<!DOCTYPE svg PUBLIC "-//W3C//DTD SVG 1.1//EN" "http://www.w3.org/Graphics/SVG/1.1/DTD/svg11.dtd">
<svg version="1.1" id="Layer_1" xmlns="http://www.w3.org/2000/svg" xmlns:xlink="http://www.w3.org/1999/xlink" x="0px" y="0px"
	 viewBox="-161.6 193.7 737.9 390.5" enable-background="new -161.6 193.7 737.9 390.5" xml:space="preserve">
<path opacity="4.000000e-002" d="M326.7,330.8c-1.2-1.6-2.3-3.2-3.3-4.9l23.5-3.9l-25.4,0.2c-4.9-10.7-5.2-23-0.8-34l34.1,17.7
	l-31.5-23.1c11.8-20.5,38-27.5,58.5-15.7c20.5,11.8,27.5,38,15.7,58.5c-1,1.8-2.2,3.5-3.5,5.1c1.9,2.4,3.5,5,4.9,7.8l-30.5,15.9
	l32.6-10.9c4.6,13.7,2,28.9-6.9,40.3c14.6,18.6,11.4,45.6-7.2,60.2c-5.4,4.3-11.8,7.2-18.6,8.4c0.6,1.6,0.9,3.3,0.8,5
	c0,2.5-0.6,5-1.9,7.1c2.5,4.4,2.5,9.9,0,14.3c2.5,4.4,2.5,9.9,0,14.3c2.5,4.4,2.5,9.9,0,14.3c1.2,2.2,1.9,4.6,1.9,7.1
	c0,6.5-4,11.7-8.9,11.7s-8.9-5.2-8.9-11.7c0-2.5,0.6-5,1.9-7.1c-2.5-4.4-2.5-9.9,0-14.3c-2.5-4.4-2.5-9.9,0-14.3
	c-2.5-4.4-2.5-9.9,0-14.3c-1.2-2.2-1.9-4.6-1.9-7.1c0-1.7,0.3-3.4,0.9-5c-23.2-4.6-38.4-27.1-33.8-50.3c1.3-6.7,4.2-12.9,8.4-18.2
	C314.5,368.3,314.5,346.4,326.7,330.8L326.7,330.8z"/>
<ellipse opacity="4.000000e-002" cx="278.4" cy="546.7" rx="297.9" ry="37.5"/>
<g>
	<path opacity="4.000000e-002" d="M513.3,302.4l-9.2,5.9l5.6-10.2c-1.6-1.3-3.6-2-5.6-2H504c-0.6,0-1.3,0-1.9-0.1l-3.1,2l1.3-2.4
		c-2.2-0.8-4.1-2.2-5.5-4.2l-5.6,3.6l3.5-6.4c-3.3-3.9-7.7-6.3-12.5-6.3c-5.8,0-11,3.5-14.4,8.9c-2,3.3-5.7,5.3-9.5,5.1H456
		c-6.4,0-11.6,7.3-11.6,16.3c0,9,5.2,16.3,11.6,16.3c1.4,0,2.8-0.4,4.1-1c4.4-2.2,9.6-2.3,14.1-0.3c3.8,1.7,8.2,1.7,12,0
		c4.5-1.9,9.6-1.8,14,0.3c1.2,0.6,2.6,1,4,1c6.4,0,11.6-7.3,11.6-16.3C515.8,308.9,514.9,305.5,513.3,302.4z"/>
	<path opacity="2.000000e-002" enable-background="new    " d="M495.9,326.3c-3.4-0.6-6.8-0.3-10,1.1c-3.8,1.7-8.2,1.7-12,0
		c-4.5-2-9.7-1.9-14.1,0.3c-1.3,0.7-2.6,1-4.1,1c-5.7,0-10.5-5.8-11.4-13.3c1.1-0.8,2.1-1.9,2.9-3.1c3.3-5.4,8.5-8.9,14.4-8.9
		s10.9,3.4,14.3,8.8c2,3.3,5.6,5.3,9.5,5.2h0.1C490.1,317.3,494,320.9,495.9,326.3z"/>
</g>
<path fill="#F2F2F2" d="M237.4,301.4l-4.6,2.9l2.8-5.1c-0.8-0.6-1.8-1-2.8-1h0c-0.3,0-0.6,0-1-0.1l-1.6,1l0.7-1.2
	c-1.1-0.4-2.1-1.1-2.7-2.1l-2.8,1.8l1.8-3.2c-1.5-2-3.8-3.1-6.3-3.2c-2.9,0-5.5,1.7-7.1,4.4c-1,1.6-2.8,2.6-4.8,2.6h-0.2
	c-3.2,0-5.8,3.6-5.8,8.1s2.6,8.1,5.8,8.1c0.7,0,1.4-0.2,2-0.5c2.2-1.1,4.8-1.1,7-0.1c0.9,0.4,1.9,0.6,3,0.6c1,0,2-0.2,3-0.6
	c2.2-1,4.8-0.9,7,0.1c0.6,0.3,1.3,0.5,2,0.5c3.2,0,5.8-3.6,5.8-8.1C238.7,304.7,238.3,302.9,237.4,301.4z"/>
<path opacity="3.000000e-002" enable-background="new    " d="M228.8,313.3c-1.7-0.3-3.4-0.1-5,0.5c-0.9,0.4-1.9,0.6-3,0.6
	c-1,0-2.1-0.2-3-0.6c-2.2-1-4.8-0.9-7,0.1c-0.6,0.3-1.3,0.5-2,0.5c-2.8,0-5.2-2.9-5.7-6.7c0.6-0.4,1.1-0.9,1.4-1.5
	c1.7-2.7,4.3-4.4,7.1-4.4c2.9,0,5.5,1.7,7.1,4.4c1,1.6,2.8,2.6,4.8,2.6h0.1C225.9,308.8,227.8,310.6,228.8,313.3z"/>
<g>
	<path opacity="4.000000e-002" d="M231,234.6l7.4,4.7l-4.5-8.2c1.3-1,2.8-1.6,4.5-1.6h0.1c0.5,0,1,0,1.5-0.1l2.5,1.6l-1.1-2
		c1.8-0.6,3.3-1.8,4.4-3.3l4.5,2.8l-2.8-5.2c2.6-3.2,6.2-5.1,10.1-5.1c4.7,0,8.8,2.8,11.5,7.1c1.6,2.6,4.5,4.2,7.6,4.1h0.2
		c5.2,0,9.3,5.8,9.3,13c0,7.2-4.2,13-9.3,13c-1.1,0-2.2-0.3-3.2-0.8c-3.6-1.7-7.7-1.8-11.3-0.2c-1.5,0.7-3.2,1-4.8,1
		c-1.6,0-3.3-0.3-4.8-1c-3.6-1.6-7.7-1.5-11.2,0.2c-1,0.5-2.1,0.8-3.2,0.8c-5.2,0-9.3-5.8-9.3-13C229,239.8,229.7,237,231,234.6z"/>
	<path opacity="2.000000e-002" enable-background="new    " d="M244.9,253.7c2.7-0.5,5.5-0.2,8,0.9c3.1,1.4,6.5,1.4,9.6,0
		c3.6-1.6,7.7-1.5,11.3,0.2c1,0.5,2.1,0.8,3.2,0.8c4.6,0,8.4-4.6,9.2-10.7c-0.9-0.7-1.7-1.5-2.3-2.5c-2.7-4.3-6.8-7.1-11.5-7.1
		s-8.8,2.7-11.5,7c-1.6,2.6-4.5,4.2-7.6,4.2h-0.1C249.6,246.5,246.4,249.4,244.9,253.7z"/>
</g>
<path fill="#F2F2F2" d="M136.9,343.2c-0.3-0.5-1.8,0-3.4,1c-0.3,0.2-0.5,0.4-0.8,0.6c-1.1-0.6-2.3-0.9-3.5-1.1l0.1,0
	c1.6-1,3-2.2,4.3-3.6h-3.3l4.9-1.9c0.6-0.9,0.8-1.7,0.5-2.2c-0.9-1.3-5.1,0-9.5,2.9c-2,1.3-3.8,2.8-5.3,4.6
	c-3.6,0.4-6.1,1.5-6.1,2.7c0,0.8,1.2,1.6,3.1,2.1l-0.1,0.1c-4.4,2.9-7.2,6.3-6.3,7.6c0.8,1.2,4.2,0.3,8-1.9l-2.5-1.2l4,0.3l0.1-0.1
	c0.4-0.3,0.8-0.6,1.2-0.9l-3-1.4l4.4,0.3c0.8-0.7,1.6-1.4,2.3-2.2c4.1-0.2,7.2-1.2,7.8-2.5c0.3-0.2,0.7-0.3,1-0.5
	c0.6-0.4,1.1-0.8,1.5-1.3H135l1.7-0.7C137,343.7,137,343.4,136.9,343.2z"/>
<path opacity="4.000000e-002" d="M542.5,445.7c0.6-0.8,1.2-1.6,1.7-2.5l-11.8-1.9l12.7,0.1c2.5-5.4,2.6-11.5,0.4-17l-17.1,8.9
	l15.7-11.6c-5.9-10.2-19-13.7-29.3-7.8c-10.2,5.9-13.7,19-7.8,29.3c0.5,0.9,1.1,1.7,1.7,2.5c-1,1.2-1.8,2.5-2.4,3.9l15.3,7.9
	l-16.3-5.5c-2.3,6.9-1,14.4,3.5,20.1c-7.3,9.3-5.7,22.8,3.6,30.1c2.7,2.1,5.9,3.6,9.3,4.2c-0.3,0.8-0.4,1.6-0.4,2.5
	c0,1.3,0.3,2.5,0.9,3.6c-1.2,2.2-1.2,4.9,0,7.2c-1.2,2.2-1.2,4.9,0,7.2c-1.2,2.2-1.2,4.9,0,7.2c-0.6,1.1-0.9,2.3-0.9,3.6
	c0,3.2,2,5.9,4.5,5.9s4.5-2.6,4.5-5.9c0-1.3-0.3-2.5-0.9-3.6c1.2-2.2,1.2-4.9,0-7.2c1.2-2.2,1.2-4.9,0-7.2c1.2-2.2,1.2-4.9,0-7.2
	c0.6-1.1,0.9-2.3,0.9-3.6c0-0.9-0.1-1.7-0.4-2.5c11.6-2.3,19.2-13.6,16.9-25.2c-0.7-3.3-2.1-6.5-4.2-9.1
	C548.6,464.5,548.6,453.5,542.5,445.7L542.5,445.7z"/>
<g>
	<g>
		<g>
			<path fill="#002A4C" d="M109.6,305.4l7.7,3.6l-2.3,18.9l-24.5,13l-4.4-4.2c-2.6-4.7,0.4-14.7,3.4-18.1L109.6,305.4z"/>
		</g>
		<g>
			<path fill="#FF9864" d="M116.5,310.3l-2,15.7l-14,5.3c-6.9-9.7-25-31.2-37.7-33.2c-2.9,0.4-5.3,1-8.2,2
				c-10.4,3.9-1.7-10.5,2.2-11.6c11-0.1,20.1,2.3,30.3,6.9c7.6,3.3,20.1,8.8,26,11.8L116.5,310.3z"/>
		</g>
		<g opacity="0.1">
			<path d="M106.5,325.7l-1.8,4l-4.2,1.6c-6.9-9.7-25-31.2-37.7-33.2c-2.9,0.4-5.3,1-8.2,2c-6,2.2-5.8-1.6-3.7-5.4l0,0
				c-1.2,2.9,1,2.9,6.1,1.3s9.9-4.3,26.6,9.9C100.3,320.3,106.4,325.8,106.5,325.7z"/>
		</g>
		<g>
			<path fill="#FF9864" d="M222.2,519.7c1.3,5.5,3.8,17.1,8.8,20.6c3.4,2.3,9.1,4.3,11.5,7.8c2,2.9-3.6,2.7-11.1,2.7
				c-6,0-15.1-0.5-15.1-0.5c-2.2-2.3-2.8-8.1-4-10.7c-3.2-6.4-19-37.4-19-37.4L222.2,519.7z"/>
		</g>
		<g>
			<path fill="#19191E" d="M86.8,337.9c31.4,25,55.4,52.9,79.4,71.4c-2.7,25.8,3.7,70.1-2.1,108.8c3.6,4.8,42-1.7,56.8,1.8h1.2
				c-3.6-14.7-2.8-30.1-4.2-45.2c-2.1-23.6-10.9-46.4-8.6-70.3l-12.1-50.8l-1.8-3.7c-14.7-16.3-63.2-32.6-83.5-43.6l1.1,0.9
				c8.7,9.2-23,36.7-26.9,29.6L86.8,337.9"/>
		</g>
		<g>
			<path fill="none" d="M222.3,519.6h-1.2c-2.3-0.5-5.3-0.9-8.5-1l0,0c-22.2-6.6-30.3-106.8-30.3-106.8l-15.2,2.3l-1.5,2.7
				c0.1-2.8,0.2-5.5,0.5-8c-24-18.3-48-46.1-79.4-71.2l-0.7-1.1c4,7.1,35.6-20.5,26.9-29.6l-1.1-0.9c20.3,11,68.8,27.3,83.5,43.6
				l1.8,3.7l12.1,50.8c-2.3,23.9,6.4,46.7,8.6,70.3C219.4,489.5,218.6,505,222.3,519.6z"/>
			<path opacity="0.1" d="M212.4,518.6L212.4,518.6c-17.5-0.7-45.3,3.2-48.4-0.9c5.3-35,0.6-74.5,1.6-100.8l1.5-2.7l15.2-2.3
				C182.2,411.9,190.3,512.2,212.4,518.6z"/>
		</g>
		<path opacity="0.1" d="M201.7,518.7l4.7,9.2c-3.9-7.6,14-8.5,15.8-8.3C212.9,517.8,201.7,518.7,201.7,518.7z"/>
		<path fill="#002A4C" d="M165.5,425.1l42.4,17.5c-14.9,3.8-42.4-12.2-42.3-7.7L165.5,425.1z"/>
		<g>
			<path fill="#D30051" d="M214.7,404.4l-1.2,18.3l12.7,32.3c0.9-0.1,5.3-2.1,5.1-3.2c0.7-0.6-6.5-15.8-7.1-17.6
				c-3.7-11.1-5.6-23.3-5.6-35l-0.6,0.1L214.7,404.4z"/>
		</g>
		<g>
			<path fill="#F9125F" d="M218,399.4l-9.6,2c0,0-3.6,18.5-3.4,19c0.1,0.5,7.2,22.5,7.2,22.5c1.8,9.7,6.6,20.6,9.6,28.8
				c1.5,2,11,1.2,11-1c-2-4.4-3.9-8.8-5.6-13.2c-4.2-11.5-7.1-22.9-8.3-34.9c-0.7-7.3-1.7-16-0.2-23.4"/>
		</g>
		<g>
			<path fill="none" d="M222.2,519.7h-1.2c-14.8-3.4-53.3,2.9-56.8-1.8c3.2-21.8,2.6-45.3,2-66.3L200,461l11.1-26.1
				c2.3,13.1,5.6,26.2,6.9,39.6C219.4,489.5,218.6,505,222.2,519.7z"/>
			<path fill="none" d="M205.9,389.7l-40.3,18.5c-23.9-18.1-47.6-45.7-78.8-70.6l-0.7-1.1c4,7.1,35.6-20.5,26.9-29.6l-1.1-0.9
				c20.3,11,68.8,27.3,83.5,43.6l1.8,3.7L205.9,389.7L205.9,389.7z"/>
			<path d="M200.1,461l-33.9-9.4c-0.5-16.3-1-31.2,0.1-42.5c-0.2-0.1-0.5-0.4-0.7-0.5l40.4-18.7l0,0l3.4,14.5
				c-3.3,9.8-2.2,28.3-0.5,38.5L200.1,461z"/>
		</g>
		<g>
			<path fill="none" d="M222.2,519.4h-1.2c-14.8-3.4-53.3,2.9-56.8-1.8c5.8-38.7-0.6-82.9,2.1-108.8c-1.8-1.3-3.7-2.8-5.5-4.3
				l21.1-13.6c-14.6-4-78.4-55.9-76.8-63.7l0,0c7-7.1,12.4-15.8,8.1-20.3l-1.1-0.9c20.3,11,68.8,27.3,83.5,43.6l1.8,3.7l12.1,50.8
				c-2.3,23.9,6.4,46.7,8.6,70.3C219.4,489.5,218.6,505,222.2,519.4z"/>
			<path opacity="0.1" d="M181.9,391.1l-21.1,13.6c-22.3-18.1-45-43.7-74-66.9l-0.7-1.1c2.1,3.7,11.4-1.8,18.9-9.3l0,0
				C103.2,335.2,167.2,387,181.9,391.1z"/>
		</g>
		<g>
			<path fill="#04053E" d="M285.3,323.9c10.8,32.5,7.8,71.3-16.5,101.4c-5,6.1-10.4,7.5-14.2,5.6l11-12.5l6.6-16l-6.6-5.6l-2.4-2.7
				c0-1.1-0.1-2,0.1-4.2l-0.6-0.1c-17.5,7.2-38.6,9.2-42.6,9.1h-2.6c-9.4-0.4-18.4-47.5-14.5-56.2l0,0c7.8-6.4,7.7-7,14.9-14.2l0,0
				c-14.9,5.4-39.6,11.5-56.5,11.5c-1.5-10.3-5.9-27.8-6.9-40.5h1.2c11.5,1.5,12.1,2.7,37-0.4C224.1,295.3,276.9,312.3,285.3,323.9"
				/>
		</g>
		<g>
			<path fill="#FF9864" d="M147.1,310.2c3.4,0,4.7-0.7,8.6-0.7l-1.2-9.9c-8.8-0.6-14.3-14.8-20.9-3.4c-1.5,2.9-0.6,4.3,1,4.2
				C135.9,308.1,137.9,310.8,147.1,310.2z"/>
		</g>
		<g>
			<path fill="#002A4C" d="M252.2,410.7c-5,10.4-2.8,18.3,2.1,20.7l0.9,0.1c7.1,1.7,9.7-6.7,11.8-11.8c2.1-5,7.3-16.5,3.8-21.6
				c-2.7-3.8-10.5-5.6-13-1L252.2,410.7z"/>
		</g>
		<g>
			<path fill="#002A4C" d="M209.9,336.6c7.1-6.2,37.7-21.3,37.7-21.3s-4.8,2.9-22,10.2c-2.1,1-4.8,2.1-7.8,3.2L209.9,336.6z"/>
		</g>
		<g>
			<path fill="#002A4C" d="M263,394.3l0.1-4.2c3.4-1.3,6.1-3.2,9.2-5C269.8,389.4,263,394.4,263,394.3z"/>
		</g>
		<g>
			<path fill="#002A4C" d="M138.1,299.4c1.3-1.5,3.1-1,4.3,0.4c1,1.1,2.6,3.9,2.8,5.5c0.2,0.7,0.2,2-0.7,1.7
				c-0.5-0.1-1.5-2.1-1.8-2.4c-1.2-1.6-0.5-3.6-2.2-4.7C139.6,299.3,139,299.6,138.1,299.4"/>
		</g>
		<g>
			<path fill="#EA8053" d="M264.2,394.6c2.6,0.4,5.1,1.7,6.5,3.6c1.6,2.1,1.5,5.4,0.7,8.8c0,0-2.6,1.7-4.9,3.8
				c-2.3,2.1-7.1-5.9-7.6-8.3C258.4,400,263.4,396.9,264.2,394.6z"/>
		</g>
		<path fill="#002A4C" d="M258.5,402.3l1.5,3.8l4.9,1.3l2.3-4.8c0.2-4.7-6-4.7-6-4.7l-0.5,0.9L258.5,402.3z"/>
		<g>
			<path fill="#FF9864" d="M267.2,407.8c0.7-1.8,2.9-4.4,1-6c-2.1-1.6-2.3,0.2-3.3,1.3l-2.1,5.3c1-2.3,4-7.5,1.2-9.2
				c-2.3-1.5-2.9,0.6-4,2.2c0,0-0.9,1.8-0.2,0.7c0.6-1.2,1.8-3.1,0.7-4.3c-1-1.1-2.8-1-3.8-0.1c-0.6,0.5-2.1,2.6-2.3,3.4l1.2-2.4
				c2.2-3.9-1.7-3.6-2.8-2.3c-11.5,12.5,8.9,24,15.7,11.8c1.3-3.3,5.5-7.1-4.9-7.8"/>
		</g>
		<path fill="#04053E" d="M200.6,378.3c0,0,62.5-14.5,62.7-14.6c0.1-0.1,7.1-2.8,7.1-2.8s8.3-25.5,8.1-25.5s-50.8,10.4-50.8,10.4
			l-26.6,14.7l-3.6,9.3L200.6,378.3z"/>
		<g>
			<path fill="#08080A" d="M229,390.9l-19.4,13.6c-5.1,13.2-1,24.6,0.2,38.3c-32.6-2-52.9-22.9-68.2-43.7
				c9.7-4.9,41.3-25.4,51.7-28.9c10.3-3.6,23.3-4.4,34.1-5c9.1-0.5,18-1.2,27.1-2c5.4-0.5,10.9-0.9,16-2.3L229,390.9z"/>
		</g>
		<path fill="#FF9864" d="M289,314.3l2.7,1.7c0,0,8.1,4.2,5.4,4.9c-7.2,2.1-6.4,7.3-7.1,12c-1.1,9.2,0.1,15.9-8.5,22.5
			c-3.3,2.4-7,4.8-11,5.5c1.6-8.7,1.6-17.8,3.2-26.6c1.3-7.5,5.3-13.1,11.1-17.4C286.1,316,287.6,315.1,289,314.3z"/>
		<g>
			<path fill="#FF9864" d="M302.3,311.3c-0.1,6.9-3.3,7.5-7.2,9.2c-4.7,2.1-16.3-2.3-13.8-7.2c1.6-3.2,5.4-6.1,9.8-8.2
				C294.9,303.1,302.4,307.2,302.3,311.3z"/>
		</g>
		<g>
			<path fill="#002A4C" d="M291.4,305c1.2-1.5,2.8-2,4.7-1.3c4.3,1.5,7.7,5.8,6.5,10.2c-1.2,4.7-4.4,7.1-8.9,8.6
				c0.5-0.6,0.7-1.3,0.6-2.1c-0.1-0.7-0.6-1.3-0.2-2.1c1.3,1.1,3.2-0.2,3.2-1.8c0.1-2.4-2.1-1.3-3.3-0.7c0.4-1.3,1.7-2.3,2.3-3.7
				c0.7-2,0-5.1-1.8-6.2c-0.6-0.5-2.2-1.1-3.1-0.5"/>
		</g>
		<g opacity="0.1">
			<path d="M268,408.9c-6,9.3-20.7,2.7-18.4-7c-0.7,3.2,5.6,7.5,9.4,8C262.7,410.4,266.8,410.3,268,408.9z"/>
		</g>
		<g>
			<path fill="#002A4C" d="M262.5,397.1c0.9-0.9,1.5-1.7,1.7-2.4c2.6,0.4,5.1,1.7,6.5,3.6c1.6,2.1,1.5,5.4,0.7,8.8
				c0,0-0.4,0.2-0.9,0.6c0-0.1,0,0,0,0C271.7,399.4,263.6,395.7,262.5,397.1z"/>
		</g>
		<path fill="#BC0852" d="M211,404.7c0,0-3.6-1.3-6-3.7c-10.9-12.9-12.9-37.7-9.2-51.1L211,404.7z"/>
		<g>
			<path fill="#F9125F" d="M204.5,341.8c-2.6,1.1-8.7,7.3-8.8,8.6c-1.6,11.6-0.2,23.5,7.1,44.2c0.7,2.3,5.9,11.3,8.3,10.2l7.5-5.6
				C210.7,400.6,199.5,345.1,204.5,341.8z"/>
		</g>
		<path opacity="0.1" d="M293.8,322.4c-0.6,1.1-11.5,3.6-13.7,1c-1.5,1.8-4.3,6.4-5.3,14.7c-1.5,11.5-4.3,22.9-4.3,22.9
			s2.1-17,2.8-24.4c0.7-7.1,4.2-12.7,6.7-15.4c0.1-0.1,0.2-0.2,0.4-0.4l0,0l0,0c0.7-0.6,1.7-1.6,2.7-2.4c2.9,2.2,6.7,0.6,9.3,0.7
			C295,319.2,294.3,321,293.8,322.4z"/>
		<path opacity="0.1" d="M161.3,340c6.7,0.9,32.2-3.3,49.9-9.2s36.6-15.6,36.6-15.6c-8.3-22.2-90,5.3-91,0.4L161.3,340z"/>
	</g>
	<g>
		<g>
			<path fill="#FF9864" d="M-48.6,229.4c-1.3-1.1-2.6-2.3-3.6-3.7c-0.7-1.1-1.5-2.1-2.1-3.2c-0.9-1.5-1.3-2.6-1.3-2.6
				s-9.3,7.8-7.3,8c0.9,0.1,1.5,1.5,2,3.1c0.4,1.6,0.7,3.3,1,5C-60,236-45,232-48.6,229.4z"/>
			<path fill="#FF9864" d="M-49.5,222.6c3.6,3.8-10.7,7.5-15.9,7.2s-7.8-4.3-7.5-9.4c0.2-5.1,2.2-7.6,7.3-7.2
				C-60.4,213.5-52.9,219.1-49.5,222.6z"/>
			<path fill="#04053E" d="M-60.4,228.3c-0.2,3.9-4.7,2.7-4.7,2.7c-17.6-1-11.6-11.1-8.2-18.7s6.5-2.6,7.3,0.5
				c0.9,2.9,5.6,5.3,5.6,5.3c-5,1.7-2.7,4.3-2.7,4.3C-61.1,223.8-60.2,226-60.4,228.3z"/>
		</g>
		<path fill="#FF9864" d="M-117.1,315.5c0,0-20.7,30.3-33.3,26c-12.6-4.3,28.2-30,28.2-30L-117.1,315.5z"/>
		<path fill="#6C63FF" d="M-48.6,274.6c-6.5,3.7-67.5,49.1-70.4,49.9c-2.9,0.7-9.1-11.4-9.1-11.4s29.6-24,35.4-34.9
			C-87,267.2-67.5,253-67.5,253C-52.1,248.1-42.3,270.9-48.6,274.6z"/>
		<path fill="#E25274" d="M-48.5,274.7c-6.7,3.1-68,48.4-78.6,63.4c-1.8,2.4-18.7-14.5-18.7-14.5s47.4-34.7,53.2-45.6
			C-87,267.2-67.5,253-67.5,253C-52.1,248.1-41.9,271.4-48.5,274.7z"/>
		<path fill="#FF9864" d="M-121.3,283.9c0,0-27.4,24.4-38.6,17.3c-11.1-7.2,34.5-22.4,34.5-22.4L-121.3,283.9z"/>
		<g>
			<path fill="#55536E" d="M-85.8,490c0,0-1.2,9.1-2.3,13.1c-1.1,3.9,3.4,10.8,1.7,12.5c-1.7,1.7-11.4-5.8-11.4-9.2
				c0-3.4-5.1-9.7-6.2-16.5c-1.2-6.9,9.7-2.3,9.7-2.3L-85.8,490z"/>
			<path fill="#F28555" d="M-85.8,490c0,0-1.2,9.1-2.3,13.1c-1.1,3.9,3.4,10.8,1.7,12.5c-1.7,1.7-11.4-5.8-11.4-9.2
				c0-3.4-5.1-9.7-6.2-16.5c-1.2-6.9,9.7-2.3,9.7-2.3L-85.8,490z"/>
		</g>
		<path fill="#FF9864" d="M-75.7,497.9c0,0-1.2,9.1-2.3,13.1c-1.1,3.9,3.4,10.8,1.7,12.5c-1.7,1.7-11.4-5.8-11.4-9.2
			c0-3.4-5-9.7-6.2-16.5s9.7-2.3,9.7-2.3L-75.7,497.9z"/>
		<path fill="#3F3D56" d="M-87.7,500.2c0,0-13.1-11.3-15.2-16.3c-2-5,57.9-62,57.9-62C-42,440.3-87.7,500.2-87.7,500.2z"/>
		<path fill="#020321" d="M-87.7,500.2c0,0-13.1-11.3-15.2-16.3c-2-5,57.9-62,57.9-62C-42,440.3-87.7,500.2-87.7,500.2z"/>
		<path fill="#04053E" d="M4.8,319.3c8.1,5.1,7.1,30.5,4,46.8s-33.6,76.2-33.6,76.2s-33.6,49.7-44.7,62
			c-11.1,12.2-25.4-11.1-25.4-11.1s33.6-52.8,41.6-62S-38,393.5-42,364c-4-29.5,16.8-44.6,16.8-44.6S-3.3,314.1,4.8,319.3z"/>
		<path fill="#FF6584" d="M-32.8,239.2c39.6,24.4,42.5,89,42.5,89s-38.5-1.6-39.3-4.7c-7.7-25.6-61.7-46.2-47.9-79.4
			C-72,230.7-42,227.9-42,227.9C-42,235-32.8,239.1-32.8,239.2z"/>
		<path fill="#FF6584" d="M-44.8,260.4c-21.7-0.5-91.5,44-93.9,42.1c-0.1-0.1-12.5-17.4-12.5-17.4s48.1-16.8,62.6-31.8
			c8.5-8.8,17.8-16.3,17.8-16.3C-54.6,236-37.6,260.6-44.8,260.4z"/>
	</g>
</g>
<path fill="#002A4C" d="M330.9,310.8c-2.4,3.1-6.8,3.6-10.7,3.1c-4.5-0.7-8.6-3.5-11.9-6.6c-3.9-3.6-10-6-15.1-3.6
	c1.7,0.7,3.3,2.4,5,3.2c1.2,0.6,2.6,1.3,2.9,2.6c0.2,0.9-0.2,1.8-0.6,2.6c-1.8,3.8-4.2,7.4-7.1,10.5c0,0,2.2,1.4,3.6,2.7
	c0.1,0.1,0.1,0.1,0.2,0.2c0,0,0,0,0,0l0,0c0.4,0.4,0.9,0.7,1.4,0.9c1.5,0.7,3.2,0.7,4.9,0.7c3.3-0.1,8.6-1,11.8-2
	c-6.3,0.6-6.5-2.2-7.1-4.4c3.9,0.4,7.9-0.3,11.4-2c-3,0.5-6.2-0.4-8.3-2.5C318.1,318.1,326.4,317.3,330.9,310.8z"/>
<line opacity="7.000000e-002" fill="none" stroke="#000000" stroke-width="3" stroke-miterlimit="10" x1="57.5" y1="161.8" x2="69.7" y2="144.3"/>
<line opacity="7.000000e-002" fill="none" stroke="#000000" stroke-width="3" stroke-miterlimit="10" x1="65" y1="167.3" x2="82.2" y2="155.8"/>
<line opacity="0.1" fill="none" stroke="#000000" stroke-width="3" stroke-linecap="round" stroke-miterlimit="10" x1="34.3" y1="282" x2="15.4" y2="272.2"/>
<line opacity="0.1" fill="none" stroke="#000000" stroke-width="3" stroke-linecap="round" stroke-miterlimit="10" x1="38.8" y1="274" x2="25.3" y2="258.4"/>
<line opacity="0.1" fill="none" stroke="#000000" stroke-width="3" stroke-linecap="round" stroke-miterlimit="10" x1="50.8" y1="320.8" x2="45.7" y2="341.5"/>
<line opacity="0.1" fill="none" stroke="#000000" stroke-width="3" stroke-linecap="round" stroke-miterlimit="10" x1="41.9" y1="318.3" x2="29.9" y2="335.1"/>
</svg>
